<svg xmlns="http://www.w3.org/2000/svg" xmlns:xlink="http://www.w3.org/1999/xlink" width="1080" zoomAndPan="magnify" viewBox="0 0 810 809.999993" height="1080" preserveAspectRatio="xMidYMid meet" version="1.0"><defs><g/></defs><g fill="#000000" fill-opacity="1"><g transform="translate(140.0032, 528.855975)"><g><path d="M 169.015625 -65.15625 L 175.125 -69.578125 C 182.820312 -74.097656 188.253906 -76.359375 191.421875 -76.359375 C 198.429688 -76.359375 206.007812 -70.023438 214.15625 -57.359375 C 219.132812 -49.441406 221.625 -43.101562 221.625 -38.34375 C 221.625 -33.59375 220.09375 -29.632812 217.03125 -26.46875 C 213.976562 -23.300781 210.414062 -20.472656 206.34375 -17.984375 C 202.269531 -15.492188 198.367188 -13.117188 194.640625 -10.859375 C 190.910156 -8.597656 183.273438 -5.65625 171.734375 -2.03125 C 160.191406 1.582031 149.046875 3.390625 138.296875 3.390625 C 127.554688 3.390625 116.695312 1.976562 105.71875 -0.84375 C 94.75 -3.675781 83.4375 -8.425781 71.78125 -15.09375 C 60.125 -21.769531 49.65625 -29.914062 40.375 -39.53125 C 31.101562 -49.15625 23.46875 -61.488281 17.46875 -76.53125 C 11.476562 -91.582031 8.484375 -107.929688 8.484375 -125.578125 C 8.484375 -143.222656 11.425781 -159.226562 17.3125 -173.59375 C 23.195312 -187.96875 30.71875 -199.847656 39.875 -209.234375 C 49.039062 -218.617188 59.503906 -226.484375 71.265625 -232.828125 C 93.441406 -245.046875 115.726562 -251.15625 138.125 -251.15625 C 148.757812 -251.15625 159.5625 -249.515625 170.53125 -246.234375 C 181.507812 -242.953125 189.828125 -239.613281 195.484375 -236.21875 L 203.640625 -231.46875 C 207.710938 -228.976562 210.878906 -226.941406 213.140625 -225.359375 C 219.023438 -220.609375 221.96875 -215.234375 221.96875 -209.234375 C 221.96875 -203.234375 219.585938 -196.953125 214.828125 -190.390625 C 206.003906 -178.179688 198.085938 -172.078125 191.078125 -172.078125 C 187.003906 -172.078125 181.234375 -174.5625 173.765625 -179.53125 C 164.265625 -187.226562 151.59375 -191.078125 135.75 -191.078125 C 121.050781 -191.078125 106.570312 -185.984375 92.3125 -175.796875 C 85.519531 -170.828125 79.863281 -163.816406 75.34375 -154.765625 C 70.820312 -145.710938 68.5625 -135.472656 68.5625 -124.046875 C 68.5625 -112.617188 70.820312 -102.378906 75.34375 -93.328125 C 79.863281 -84.273438 85.632812 -77.148438 92.65625 -71.953125 C 106.457031 -61.992188 120.820312 -57.015625 135.75 -57.015625 C 142.769531 -57.015625 149.390625 -57.921875 155.609375 -59.734375 C 161.828125 -61.546875 166.296875 -63.351562 169.015625 -65.15625 Z M 169.015625 -65.15625 "/></g></g></g><g fill="#000000" fill-opacity="1"><g transform="translate(370.448631, 528.855975)"><g><path d="M 66.1875 -56 C 70.03125 -52.15625 71.953125 -44.234375 71.953125 -32.234375 L 71.953125 -30.890625 C 71.953125 -25.453125 71.78125 -21.429688 71.4375 -18.828125 C 71.101562 -16.234375 69.914062 -13.125 67.875 -9.5 C 64.476562 -2.9375 55.9375 0.34375 42.25 0.34375 C 28.5625 0.34375 19.507812 -1.804688 15.09375 -6.109375 C 10.6875 -10.410156 8.484375 -18.554688 8.484375 -30.546875 L 8.484375 -31.90625 C 8.484375 -37.101562 8.648438 -41.0625 8.984375 -43.78125 C 9.328125 -46.5 10.40625 -49.550781 12.21875 -52.9375 C 15.613281 -59.726562 24.15625 -63.125 37.84375 -63.125 C 51.53125 -63.125 60.976562 -60.75 66.1875 -56 Z M 66.1875 -56 "/></g></g></g><g fill="#000000" fill-opacity="1"><g transform="translate(450.883883, 528.855975)"><g><path d="M 203.96875 -42.078125 C 207.363281 -33.929688 209.0625 -28.050781 209.0625 -24.4375 C 209.0625 -15.84375 202.046875 -8.601562 188.015625 -2.71875 C 180.773438 0.445312 174.945312 2.03125 170.53125 2.03125 C 166.125 2.03125 162.503906 0.957031 159.671875 -1.1875 C 156.847656 -3.332031 154.757812 -5.539062 153.40625 -7.8125 C 151.144531 -12.101562 142.320312 -32.578125 126.9375 -69.234375 L 116.40625 -68.5625 L 73.640625 -68.5625 L 73.640625 -30.203125 C 73.640625 -25.003906 73.46875 -21.101562 73.125 -18.5 C 72.789062 -15.894531 71.722656 -12.894531 69.921875 -9.5 C 66.742188 -3.394531 57.914062 -0.34375 43.4375 -0.34375 C 27.601562 -0.34375 18.328125 -4.523438 15.609375 -12.890625 C 14.253906 -16.742188 13.578125 -22.628906 13.578125 -30.546875 L 13.578125 -218.90625 C 13.578125 -224.113281 13.742188 -228.015625 14.078125 -230.609375 C 14.421875 -233.210938 15.5 -236.210938 17.3125 -239.609375 C 20.476562 -245.710938 29.300781 -248.765625 43.78125 -248.765625 L 117.09375 -248.765625 C 137 -248.765625 156.34375 -241.523438 175.125 -227.046875 C 184.175781 -220.035156 191.640625 -210.535156 197.515625 -198.546875 C 203.398438 -186.554688 206.34375 -173.207031 206.34375 -158.5 C 206.34375 -132.925781 197.859375 -111.882812 180.890625 -95.375 C 185.867188 -83.375 193.5625 -65.609375 203.96875 -42.078125 Z M 73.640625 -128.625 L 117.09375 -128.625 C 123.65625 -128.625 130.210938 -131.113281 136.765625 -136.09375 C 143.328125 -141.070312 146.609375 -148.535156 146.609375 -158.484375 C 146.609375 -168.441406 143.328125 -175.96875 136.765625 -181.0625 C 130.210938 -186.15625 123.425781 -188.703125 116.40625 -188.703125 L 73.640625 -188.703125 Z M 73.640625 -128.625 "/></g></g></g></svg>